<svg viewBox="0 0 72 72" xmlns="http://www.w3.org/2000/svg"><path d="m44.49 48.56s3.64 7.78 20.42 9.26v8.92s-15.74-2.25-23.76-14.6z" fill="#ed1c24"/><path d="m43.17 50-2 2.16c8 12.36 23.76 14.61 23.76 14.61v-4.37c-4.24-.8-14.93-3.64-21.76-12.4z" fill="#9f1d20"/><path d="m40.12 3.13-1.4 3.72-4.47-3.72-20.88 9.3 1.91 4.66-4.55.24-6.24 21.25 4.83 2.9-3.9 5.1 11.85 11.93 7.3-7.75 25.98-26.53 8.26-19.81z" fill="#dcaa00"/><path d="m20.84 52.86c-1.56-2.94-3-6.79-2.94-10.38a19.89 19.89 0 0 1 20-19.79 19.21 19.21 0 0 1 9.1 2.47l2.82-7a26.43 26.43 0 0 0 -11.8-3c-14.93-.26-27.4 10.12-29.45 27.33-.66 5.59 4.1 11.47 6.85 15.89 1.81-1.74 3.58-3.78 5.42-5.52z" fill="#a77815"/><path d="m25 50.27a18.56 18.56 0 0 1 25.24-25.11l2.67-6.48a25.53 25.53 0 0 0 -33.13 36.45z" fill="#ffdb00"/><path d="m10.13 41.77-3.92 4.72 7.3 6.94 1.5-2.97z" fill="#a77815"/><path d="m41.15 45.65 21.12-17.48 5.24 10.78-24.06 10.05z" fill="#ed1c24"/><path d="m65.27 34.34-22.88 11.32-.49-.63-.75.62 2.3 3.35 24.06-10.05z" fill="#9f1d20"/><path d="m58.44 31.47s-5.19-8.81-17.69-8.47-19.75 10.87-18.87 19.76 17.77 18.84 2 25.51h22.02l-2.39-9a20.52 20.52 0 0 1 6.77-21.07z" fill="#ed1c24"/><path d="m40.75 22.05c-.68 0-1.35.08-2 .15a20.22 20.22 0 0 1 11.81 5.37 3.37 3.37 0 0 1 -.15 5.07l-5.54 4.57a20.52 20.52 0 0 0 -6.77 21.11l.78 2.94a.79.79 0 0 1 -.77 1h-.75a.78.78 0 0 1 -.79-.76c0-5.84-8.3-12.58-8.93-18.82-.8-7.93 4.72-17.07 14.59-19.62h-1.11c-12.5.37-19.77 10.83-18.87 19.72.66 6.5 9.84 13.56 8.56 19.5h-.55v1.45c-.9 1.64-2.76 3.17-6.05 4.56h6.91c.42-.21.8-.42 1.17-.63h12.17v-.35h1.44l-2.39-9a20.52 20.52 0 0 1 6.77-21.11l8.16-6.73s-5.19-8.79-17.69-8.42z" fill="#9f1d20"/><g fill="none" stroke="#231f20" stroke-linecap="round" stroke-linejoin="round"><path d="m58.44 31.47s-5.19-8.81-17.69-8.47-19.75 10.87-18.87 19.76 17.77 18.84 2 25.51h22.02l-2.39-9a20.52 20.52 0 0 1 6.77-21.07z" stroke-width="4"/><path d="m53 18.32a30.4 30.4 0 0 0 -12-2c-17.13.51-27.1 14.85-25.87 27 .4 3.94 3.09 8 5.81 12.07" stroke-width="2"/><path d="m41.15 45.65 21.12-17.48 5.24 10.78-24.06 10.05z" stroke-width="4"/><path d="m44.49 48.56s3.64 7.78 20.42 9.26v8.92s-15.74-2.25-23.76-14.6zm6.06-24.33 8.26-19.81-18.69-1.29-1.4 3.72-4.47-3.72-20.88 9.3 1.91 4.66-4.55.24-6.24 21.25 4.83 2.9-3.9 5.1 11.85 11.93 7.3-7.75" stroke-width="4"/></g><circle cx="43.21" cy="48.04" fill="#ed1c24" r="5.39"/><path d="m43.21 48.75a5.38 5.38 0 0 1 -4.84-3.05 5.34 5.34 0 0 0 -.56 2.3 5.39 5.39 0 1 0 10.79 0 5.34 5.34 0 0 0 -.6-2.3 5.38 5.38 0 0 1 -4.79 3.05z" fill="#9f1d20"/><circle cx="43.21" cy="48.04" fill="none" r="5.39" stroke="#231f20" stroke-linecap="round" stroke-linejoin="round" stroke-width="4"/></svg>