<svg enable-background="new 0 0 65 65" viewBox="0 0 65 65" xmlns="http://www.w3.org/2000/svg"><circle cx="32.578" cy="32.578" fill="#b3cc9b" r="27.422"/><path d="m53.759 49.994-3.086-1.079-.36-1.025s-.942-.443-1.441-.776-1.496-2.743-1.829-3.242-.998-.471-1.025-.554.72-1.829 1.025-2.633 1.857-5.21 1.857-5.21.776-4.074.776-4.96-.72-4.85-.72-4.85l-.083-1.33s.083-5.764 0-6.623-1.275-4.683-1.275-4.683-1.108-2.355-1.912-3.492c-.465-.658-1.19-1.385-1.907-1.987-3.421-1.533-7.209-2.393-11.2-2.393-4.069 0-7.928.893-11.4 2.483-.179.108-.295.179-.295.179s-1.469 1.718-1.746 2.217-.97 2.023-1.025 2.217-1.663 3.88-1.663 3.88l-.36 3.519s.277 4.988.277 5.265-.637 2.549-.637 2.549l-.333 3.603s.443 3.021 1.302 5.958 2.355 5.792 2.355 5.792.166.388.055.554-.166.055-.61.222c-.443.166-1.164 1.58-1.164 1.58s-.97 1.829-1.219 1.968-1.192.499-1.192.499l-.222 1.025s-1.923.701-3.313 1.319c5.03 6.114 12.654 10.014 21.189 10.014 1.131 0 2.244-.073 3.339-.206.016-.886.05-1.978.119-2.011.116-.055 2.998-.61 2.998-.61s4.406-1.219 4.739-1.441 2.937-1.912 2.937-1.912l.582-.416 2.345.639c1.511-1.202 2.895-2.558 4.122-4.049z" fill="#cdbb76"/><path d="m39.141 53.019c1.152-.37 1.687-3.127 1.687-3.127s1.327-1.586 2.46-3.007l-.457-.186.042-.374-.083-11.473 2.161-2.868s.873-1.995.79-2.536c-.047-.305-.359-1.259-.674-2.197-.213.109-.412.214-.412.214l-.082-.864s.022-.252.056-.647c-.07-.209-.132-.395-.177-.538-.291-.914-1.455-1.995-1.455-1.995s-1.164 1.372-1.372 1.621-.901.111-.901.111l-.014-1.192-.291-.998-.914.707s-.998 0-1.131.009-2.777 1.03-3.192 1.446-2.078 1.912-2.078 1.912l-1.56-.189s-1.017-1.349-1.464-1.494c-.447-.146-2.879-1.6-2.879-1.6h-.707l-1.226-.021-.977-1.268.436 2.816-1.351-.322-1.33-1.704s-1.017 1.69-1.734 3.529l-.065.682s-.065-.034-.156-.082c-.231.673-.405 1.345-.456 1.94-.208 2.411 2.536 5.653 2.536 5.653l.083 11.556s.077.322-.72.251c1.149 1.446 2.54 3.108 2.54 3.108s.535 2.757 1.687 3.127 1.399 1.029 2.387 1.029.7.7 2.304.535c1.003-.103 1.255.103 1.523.185.267.082.72.082.989-.02s.348-.282 1.485-.166c1.605.165 1.317-.535 2.304-.535.989 0 1.236-.658 2.388-1.028z" fill="#7d87ad"/><path d="m37.901 39.439c1.399.37 1.214.494 1.379.946s.494 1.399.453 1.79-.185 2.119.062 2.942 1.132 5.432 1.132 5.432l.206-.185s.195-.291.481-.705l.511-.966 1.28-1.459c.069-.082.136-.159.197-.224l-.77-.312.042-.374-.083-11.473 2.161-2.868s.179-.409.367-.907c-.131-1.119-.247-2.114-.256-2.192-.013-.115.03-.888.064-1.457-.262-.782-.537-1.581-.674-2.011-.291-.914-1.455-1.995-1.455-1.995s-1.164 1.372-1.372 1.621-.901.111-.901.111l-.014-1.192-.291-.998-.914.707s-.998 0-1.131.009c0 0-.535.473-1.296.782-.482.196-1.22.448-1.796.581-.041.03-.075.057-.1.083-.246.246-.927.869-1.444 1.338.015.06.03.121.048.179.185.597.144.988-.185 1.481-.329.494-.082.905.082 1.132.165.226.411.967.267 1.605s-.761 1.049-1.152 1.111-1.255-.226-1.214-.103.539 1.351.909 1.557.798-.096.86.11.597 2.243.597 2.243-.103.309.062.247 1.111.267 1.296.432 0 .267-.288.576-.946.576-1.214.617c-.267.041-1.317.514-1.317.514s-.062.267-.062.329v1.379s1.79.021 2.346-.123 1.728-.68 3.127-.31z" fill="#776aad"/><path d="m46.71 53.82s-2.605 1.69-2.937 1.912c-.333.222-4.739 1.441-4.739 1.441s-2.882.554-2.998.61c-.069.033-.103 1.125-.119 2.011 5.15-.625 9.858-2.677 13.72-5.75l-2.345-.639z" fill="#ae9357"/><path d="m32.028 32.538s.072-.145.216-.166.48.29.48.29-.288 1.948-.192 2.612c.096.663.817.953.697 1.14s-.937.062-1.057.021-.889-.539-.937-.829.793-3.068.793-3.068z" fill="#776aad"/><path d="m32.491 39.852-.021 6.378s0 2.675.041 3.292.165 4.917.123 5.247c-.041.329.514.658.514.658s1.296-.35 1.996-.391 2.366-.165 3.148-.556 2.016-1.193 2.201-1.811c.185-.617.309-1.996.185-2.448s-.946-5.391-.967-5.535-.041-1.481.021-2.181.082-1.461-.206-2.119-1.975-1.337-2.778-1.379-4.257.845-4.257.845z" fill="#776aad"/><path d="m32.48 42.078s.339 1.497.617 3.673.309 4.861.262 5.756c-.046.895.077 3.241-.247 3.503s-.478.17-.478.17l-.108-3.117-.139-4.66.031-3.703z" fill="#615d8f"/><path d="m28.786 54.351s-.689-2.478-.554-4.099.854-3.885.928-4.558c.075-.673-.449-3.028-.449-3.028l.03 2.264-1.003 3.487s-.359 1.82-.135 3.304c.225 1.484.419 2.462.419 2.462z" fill="#776aad"/><path d="m31.26 54.733s-.614-4.573-.644-6.393-.045-5.261-.075-5.399-.15.597-.15.597-.195 4.023-.24 4.221c-.045.199.045 3.885.135 4.803s.075 2.371.075 2.371z" fill="#776aad"/><path d="m25.641 41.197s.03.994.12 1.147.255 1.682.165 2.753-.854 3.977-.794 4.833c.06.857.105 2.279.21 2.722.105.444-.614-.107-.779-.826s-.015-2.57-.015-2.57.764-2.891.869-3.824.195-2.08.12-2.57c-.076-.487-.091-1.481.104-1.665z" fill="#776aad"/><path d="m26.869 53.601s-.704-2.126-.734-3.564 1.063-3.319 1.198-4.527-.225-2.906-.314-3.503c-.09-.597-.195-1.101-.195-1.101l-.045 2.417.075 2.004-.689 1.912s-.913 1.774-.689 3.763c.225 1.988 1.033 2.906 1.033 2.906z" fill="#776aad"/><path d="m35.381 26.693s.401-.324.664-.556c.262-.231.556-.185.926-.278s.339-.463.478-.741.382-.972.366-1.172c-.015-.201 1.919-.65 2.397-.665s.327 1.655.513 1.871c.185.216 1.199-.342 1.261-.141s-.108.864-.463 1.034-.756.201-.864.37.015.386.139.401.602.046.864.062c.262.015-.494.556-.633.633s-.71.201-1.126.386c-.417.185-.664.262-1.157.17-.494-.093-.883-.295-1.069-.434-.185-.139-.386-.216-.386-.216l.483.784s-.34-.119-.726-.397-.772-.571-.772-.571l-.401-.509s-.432-.031-.494-.031z" fill="#615d8f"/><path d="m40.72 49.706s-.556-3.189-.679-3.559-.35-1.934-.35-2.284.514.905.617 1.193.226.967.658 1.502.617 1.317.576 1.481-.022 1.305-.279 1.949c-.255.644-.543-.282-.543-.282z" fill="#7553b8"/><g fill="#9495c6"><path d="m24.209 50.102.772-3.673s.456-1.988.503-2.682c.046-.694-.055-1.649-.055-1.649l.166-.804.125-.596s-.445.699-.568 1.178c-.123.478-.121 2.263-.291 3.034-.17.772-.975 2.599-1.16 3.231-.185.633-.062 2.021.046 2.176.107.155.462-.215.462-.215z"/><path d="m25.875 53.142c-.031-.154-.37-1.42-.417-2.886-.046-1.466.648-2.839.648-2.839s.572-1.381.665-1.813.094-1.16.125-1.33-.054-1.685-.069-2.009-.083-1.386-.083-1.386-.406 1.184-.437 1.971-.077 2.824-.139 3.071-.88 1.883-1.188 3.256c-.309 1.373-.062 3.21.123 3.657s.648.694.648.694z"/><path d="m27.928 54.176s-.448-2.608-.339-3.719c.108-1.111.509-2.793.54-2.947s.796-2.15.75-2.474-.24-1.615-.24-1.615l-.355-2.824s-.062 1.08-.062 1.883.108 2.623.046 2.839-1.373 3.811-1.342 5.725c.031 1.913.509 3.04.602 3.21s.4-.078.4-.078z"/><path d="m30.453 54.582s-.273-5.175-.273-5.452c0-.278.138-1.683.138-1.683s-.036-1.902.042-3.09c.077-1.188-.18-2.587-.18-2.587l-.139-.54s-.093 3.919-.201 4.506c-.108.586-.309 3.688-.201 5.231s.108 3.009.062 3.318-.293.309-.293.309.031.37.37.432c.341.06.675-.444.675-.444z"/><path d="m32.295 55.071s.339-.417.278-.941c-.062-.525-.046-3.179-.046-3.179s-.185-8.148-.201-8.364c-.015-.216-.062-.679-.062-.679s-.355 3.75-.309 4.845c.046 1.096-.154 3.734-.139 4.66s.185 2.315.185 2.716-.247.741-.17.941c.078.201.464.001.464.001z"/></g><path d="m39.347 53.327s.818-.417 1.111-1.697.154-1.913.139-1.96c-.015-.046-.694-3.132-1.142-4.028-.448-.895-.617-1.975-.71-2.808s-.309-1.867-.309-1.867-.278 3.009-.201 3.441.216 1.744.339 2.284.91 1.836.941 3.241c.031 1.404-.201 2.191-.324 2.716s.156.678.156.678z" fill="#615d8f"/><path d="m36.693 41.569s.046 1.913.108 2.623 1.049 3.225 1.451 4.429c.401 1.204.293 3.086.062 3.889-.231.802-.401 1.435-.71 1.589s-.586.139-.586.139.509-2.808.401-4.043-.478-2.531-.633-2.824c-.154-.293-.556-2.299-.556-2.299l.247-2.916z" fill="#615d8f"/><path d="m34.887 42.433s.185 2.253.386 3.287.586 3.611.556 6.188c-.031 2.577-.37 2.978-.37 2.978l-.787-.077.139-5.355.015-2.006.046-2.392z" fill="#615d8f"/><path d="m27.47 38.575s.823-.103 1.687-.35 1.049-.247 2.099-.082 1.749-.041 2.634-.021c.885.021 2.16-.514 2.16-.514l.041-.792-1.646-.71s-1.399.35-1.831.35-.864-.267-1.173-.35c-.309-.082-.514-.123-.7-.041s-1.276.658-1.276.658l-1.317.967-.226-.041-.411.391z" fill="#776aad"/><path d="m28.149 37.69s-.082.165.267 0 2.366-.576 2.778-.494c.411.082.761.123 1.337.123s.206-.885.082-.864c-.123.021.946-.144 1.276-.288.329-.144 1.008.021 1.008.021l1.584.905 1.728 1.523-.946-.123s-2.51-.679-3.086-.576-1.44.411-1.996.35c-.556-.062-1.07-.35-1.749-.288s-2.798.617-2.963.597c-.164-.021-.04-.906.68-.886z" fill="#615d8f"/><path d="m30.582 25.942s1.085.247.962.905.144 1.584.144 1.852-.309 1.543-.391 1.852-.329-.267-.185-.844c.144-.576.617-.946.288-1.667-.329-.72-1.108-1.553-1.067-1.738s.249-.36.249-.36z" fill="#776aad"/><path d="m22.018 37.958s.535 1.049.844 2.222.782 2.901.823 3.127.185-3.066.288-3.395.423 2.502.361 2.976-.34 2.559-.505 3.444-.473.617-.473.617z" fill="#776aad"/><path d="m36.646 55.014s.494.082 1.132.226 1.481.514 1.481.514 4.485-1.173 5.349-1.852 1.09-1.111 1.09-1.111 0-7.201-.082-7.489-.37.041-.802.494-2.942 3.539-3.292 4.033-.638 2.201-1.07 2.716c-.432.514-1.913 1.523-1.913 1.523l-1.728.473z" fill="#474c4b"/><path d="m45.583 43.914.679-.432s.864.37 1.08.648 1.79 3.148 1.79 3.148l1.173.463-.062 1.111 3.34 1.366c-1.041 1.44-2.577 2.771-3.963 3.824l-3.977-1.076z" fill="#ae9357"/><path d="m47.112 43.86.457 1.282s-.332 7.756-.353 8.081c-.021.326-1.704 1.975-3.72 2.606s-7.46 1.954-7.46 1.954l.042-1.16s6.359-1.588 7.481-2.198 2.244-1.791 2.244-1.791.062-8.692.083-8.834.748-.224.748-.224z" fill="#cdbb76"/><path d="m37.579 25.679s-.346.527-.346.61.083.125.457.291 1.205.028 1.33.028.582-.042.554-.208.125-.097-.097-.277-.374-.388-.707-.43c-.332-.042-1.191-.014-1.191-.014z" fill="#e2ddae"/><path d="m24.728 25.281s.166.239.509.229.364.021.364.052-.738.53-.779.603c-.042.073-.073.374-.042.447s.727.447 1.216.53c.488.083 1.195.114 1.611-.031s-.208.499-.405.603.426-.177.842-.343.707-.208 1.257-.187c.551.021.831-.187 1.216-.374s.655-.218.644-.426c-.01-.208-.301-.603-1.081-1.029-.779-.426-.935-.696-1.767-1.091-.831-.395-1.216-.696-1.538-.644s-.364.343-.863.249-.229.312-.644-.135c-.416-.447-.343-.665-.478-.582s-.27.135-.27.135z" fill="#776aad"/><path d="m22.185 23.781s-.527.748-.471 1.607c.055.859-.111 1.94-.194 3.159s.222 2.439 1.025 3.963c.804 1.524.665 3.464.665 3.464s.416 9.976.471 10.724.222 2.771.222 2.965-2.328-2.439-2.272-2.633c.055-.194.72-.333.624-.499-.097-.166-.083-11.556-.083-11.556s-2.259-3.187-2.48-4.406c-.222-1.219.527-4.351.527-4.351s1.358-2.522 1.635-2.66c.276-.138.331.223.331.223z" fill="#776aad"/><path d="m24.402 37.858s.637-1.219 1.219-1.912 1.746-1.774 2.66-2.439 1.358-1.025 1.94-1.108-.693-.055-.748-.721c-.055-.665-.083-1.053-.083-1.053s-1.635 2.189-1.69 2.272c-.055.084-3.409 3.991-3.298 4.961z" fill="#776aad"/><path d="m27.753 25.679s.346.527.346.61-.083.125-.457.291-1.205.028-1.33.028-.582-.042-.554-.208-.125-.097.097-.277.374-.388.707-.43c.332-.042 1.191-.014 1.191-.014z" fill="#e2ddae"/><path d="m41.625 25.042c.125-.021.935-.187 1.372.208.436.395.291 1.455.52 2.349s.416 2.016.436 3.242c.021 1.226-1.413 3.616-1.33 3.887.083.27 1.289-1.372 1.351-1.455s1.6-2.328 1.642-3.138c.042-.811-.416-2.827-.977-4.053s-1.039-2.016-1.309-2.39-.125-.395-.333-.27-1.372 1.62-1.372 1.62z" fill="#615d8f"/><path d="m21.215 46.303s.042-10.475.083-10.662c.042-.187.166-.27.104-.395s-1.891-2.494-2.369-3.7c-.478-1.205-1.164-2.806-1.413-4.635s.603-4.178.956-4.801c.353-.624 1.455-1.621 1.517-1.559s2.058 2.91 2.058 2.91-1.974 2.39-2.328 3.762c-.353 1.372-.27 3.471.333 4.676s2.182 3.263 2.182 3.263-.166 11.348-.187 11.577-.457.125-.457.125z" fill="#ae9357"/><path d="m30.637 6.544s-.859.665-1.718 2.466-1.219 3.325-1.219 3.963-.055 7.593 0 7.704 1.829 1.081 1.912 1.164-.111-.721.194-1.053c.305-.333 1.053-.139 1.136-.582s.028-13.413.028-13.413z" fill="#506c7b"/><path d="m34.511 6.378s.859.665 1.718 2.466 1.219 3.325 1.219 3.963.055 7.593 0 7.704-1.829 1.081-1.912 1.164.111-.721-.194-1.053c-.305-.333-1.053-.139-1.136-.582s-.028-13.412-.028-13.412z" fill="#506c7b"/><g fill="#ae9357"><path d="m25.178 6.544s-.471.36-.582 1.441.554 14.937.554 15.214-.859-.734-.859-.734l-.831-14.813z"/><path d="m28.808 5.713s-1.829.831-1.968 3.131 0 11.445 0 11.445l.36 3.464-.804-.36s-.471-13.357-.194-14.715.665-2.3.804-2.411c.14-.111 1.802-.554 1.802-.554z"/><path d="m32.578 5.157.027 21.7-.388.083-.083-5.293-.111-16.544z"/><path d="m40.586 6.96s.36 1.524.222 2.743c-.139 1.219-.721 13.191-.721 13.191s.665-.637.748-.859.831-13.994.831-14.382-1.08-.693-1.08-.693z"/><path d="m45.74 9.897s1.358 2.605 2.023 3.769.942 3.325 1.053 4.794 0 6.595 0 6.595 1.081 3.492 1.108 5.127c.028 1.635-1.857 8.175-2.051 8.729s-2.573 6.51-3.06 6.885-1.014.929-1.014.929l-.083-11.417s1.552-1.829 2.605-4.212 1.081-3.298 1.053-3.797-.859.111-.859.111-.36 1.302-.416 1.413-1.912-4.295-2.355-4.822-.748-.582-.748-.582l2.106-2.993s.776-1.192.083-2.827-.97-2.716-.998-4.988-.194-4.6-.194-4.6 1.415 1.083 1.747 1.886z"/><path d="m18.5 43.595s.014 8.549.097 9.048.873 1.621 1.122 1.912 3.533 1.787 3.783 1.954c.249.166.125.914.291 1.039s4.489 1.039 4.489 1.039l.042 1.039s.665.166.873.125c.208-.042.097-2.577-.139-2.91s-.582-.388-.582-.388-5.473-1.524-6.97-2.272c-1.496-.748-1.995-1.372-2.037-1.58s-.042-8.397-.042-8.397l-.319-.831z"/></g><path d="m19.941 53.238c.249.249.914.776 2.051 1.192 1.136.416 5.958 1.774 6.485 2.023s.527.139.582.388c.038.169.164 1.877.242 2.961 1.074.128 2.167.198 3.277.198 1.131 0 2.244-.072 3.339-.205v-.001s-.025-3.001.161-3.171c.185-.17 3.15-1.057 3.15-1.057s-.499-.914-.582-.942-1.181-.634-1.63-.386-1.142.553-1.834.553c-.693 0-1.386-.249-1.774-.083s-.205.672-1.114.364-1.103-.53-1.519-.447-.434.27-1.367-.031-.673-.485-1.26-.545c-.587-.061-.596-.107-1.409-.458s-1.312-.407-1.811-.989-.887-2.106-1.053-2.522-.416-.582-.554-.859c-.139-.277-3.325-4.323-3.325-4.323s-.305-.166-.388 0c0 0-.139 5.57-.083 6.457.055.886.166 1.634.416 1.883z" fill="#615d8f"/><g fill="#474c4b"><path d="m23.787 26.771c-.323.006-.672-.045-.936-.276.234.27.59.384.93.425.172.014.345.015.52-.005.178-.032.345-.046.533-.202l.023-.019.006-.061c.046-.443.455-.759.893-.853.139-.037.28-.06.421-.077-.449.203-.792.653-.792.653s.544.338 1.131.384.945-.015 1.16-.077.344-.184.473-.169.387.138.501.092c.115-.046.057-.169-.143-.246-.159-.061-.397-.352-.49-.47l.51.081.352.055c.087.021.197.118.295.178.204.134.401.285.622.387-.204-.132-.379-.31-.563-.473-.1-.078-.163-.178-.301-.236l-.352-.087c-.473-.122-.947-.233-1.418-.311-.474-.089-.994-.115-1.473.042-.189.048-.391.14-.567.272-.09.054-.31.198-.568.465-.176.182-.797.133-1.124-.112s-.337-.552-.337-.552-.061.44.378.715c.44.276.971.194 1.073.174.067-.013.088.059.096.112-.086.065-.235.12-.367.146-.156.032-.322.045-.486.045zm2.421-.326c-.079-.093-.137-.401-.137-.401l.28-.154c-.072.393.259.609.259.609-.186-.016-.402-.054-.402-.054zm.458-.317c-.109.013-.134-.25-.086-.288 0 0 .112-.032.214-.051s.109.077.115.154c.007.076-.134.172-.243.185zm.721.386s.144-.054.194-.293-.014-.324-.014-.324.129.039.173.069c.043.031.194.278.201.332s-.389.232-.554.216z"/><path d="m25.014 27.048s.115.384 1.189.353 1.704-.446 1.704-.446-.802.169-1.49.092c-.687-.077-1.189-.261-1.189-.261.229.323.816.446.816.446-.644.062-1.03-.184-1.03-.184z"/><path d="m25.543 28.039c.446.125.927.119 1.362-.042.43-.165.816-.409 1.188-.672-.404.2-.813.396-1.23.528-.415.122-.86.127-1.271-.003-.415-.126-.832-.331-1.282-.41-.452-.06-.9-.013-1.345-.007.442.066.891.072 1.317.155.426.105.825.3 1.261.451z"/><path d="m25.472 28.185-1.189.077c.587.246 1.189-.077 1.189-.077z"/><path d="m26.861 28.539c.802-.138 1.819-1.153 1.819-1.153z"/><path d="m30.127 26.326-.63-.369c.191.476.63.369.63.369z"/><path d="m29.01 26.418-.057.231.315.015c-.001 0-.115-.246-.258-.246z"/><path d="m27.764 29.292c.788-.476 1.533-1.368 1.533-1.368s-.888.707-1.575 1.153-1.533.538-1.533.538.787.153 1.575-.323z"/><path d="m26.916 34.272c.611-.848 1.216-1.7 1.781-2.579-.697.755-1.353 1.538-2.004 2.323-.685.774-1.363 1.538-2.014 2.373-.299.489-.445 1.061-.53 1.61-.081.549-.124 1.116-.099 1.668.032 1.102.134 2.191.298 3.271.005-1.095-.017-2.187.016-3.268.021-.54.066-1.063.165-1.587.093-.518.227-1.018.485-1.423z"/><path d="m27.215 39.178s-.267.307-.42.963-.153 1.557-.038 2.684 0 2.828 0 2.828.286-.676.306-.799c.019-.123-.076-2.664-.115-2.91-.038-.246.038-2.008.095-2.213.057-.204.172-.553.172-.553z"/><path d="m28.682 40.903c-.051-.337-.113-.675-.133-1.009-.017-.167-.027-.335-.02-.501.018-.144.007-.383.176-.399-.189-.027-.235.241-.272.384-.036.172-.052.346-.063.519-.017.349.015.687.032 1.027.042.679.116 1.356.172 2.034.072.662.188 1.385.225 1.996-.081.653-.214 1.329-.363 1.99.294-.615.496-1.261.642-1.947.025-.744-.097-1.374-.139-2.067-.087-.675-.156-1.353-.257-2.027z"/><path d="m30.261 39.552c.034-.311.079-.624.104-.947-.096.307-.174.623-.261.942-.068.32-.001.641-.009.962.024.642.075 1.284.113 1.926.04.641-.011 1.282.009 1.923.009.642.023 1.284.072 1.93.083-.64.131-1.284.173-1.928.034-.644.079-1.291.066-1.933-.062-.64-.111-1.28-.186-1.92-.022-.317-.117-.645-.081-.955z"/><path d="m31.338 29.496c.047-.095.08-.194.128-.283.04-.085.11-.159.17-.288.093-.244.086-.513 0-.737-.095-.239-.236-.382-.364-.572l.071.336c.038.107.069.195.082.298.031.197.032.395-.05.557-.066.144-.221.41-.246.62-.049.224-.057.452-.036.678z"/><path d="m36.126 26.216c.098-.06.208-.157.295-.178l.352-.055.51-.081c-.092.118-.33.409-.49.47-.201.077-.258.2-.143.246s.372-.077.501-.092.258.108.473.169.573.123 1.16.077 1.131-.384 1.131-.384-.344-.45-.792-.653c.141.017.282.04.421.077.438.094.847.41.893.853l.006.061.023.019c.188.156.355.17.533.202.175.021.348.019.52.005.34-.041.697-.155.93-.425-.265.231-.614.283-.936.276-.164 0-.33-.013-.487-.045-.131-.026-.279-.081-.365-.145.012-.047.037-.094.091-.083.102.02.634.102 1.073-.174s.378-.715.378-.715-.01.307-.337.552-.948.294-1.124.112c-.155-.16-.293-.271-.401-.351-.205-.212-.478-.352-.73-.416-.478-.157-.999-.131-1.473-.042-.471.078-.945.189-1.418.311l-.352.087c-.138.057-.202.158-.301.236-.185.163-.359.341-.563.473.222-.102.419-.254.622-.387zm1.235.113c.007-.054.158-.301.201-.332s.173-.069.173-.069-.065.085-.014.324.194.293.194.293c-.166.015-.561-.162-.554-.216zm.76-.139c-.109.013-.134-.25-.086-.288 0 0 .112-.032.214-.051s.109.077.115.154c.007.076-.134.172-.243.185zm.973.286s-.216.039-.403.054c0 0 .331-.216.259-.609l.28.154c0-.001-.057.308-.136.401z"/><path d="m40.073 26.817s-.501.184-1.189.261-1.49-.092-1.49-.092.63.415 1.704.446 1.189-.353 1.189-.353-.387.246-1.031.184c.001 0 .588-.123.817-.446z"/><path d="m40.991 27.47c-.45.079-.867.284-1.282.41-.411.13-.856.125-1.271.003-.417-.132-.826-.328-1.23-.528.372.264.758.508 1.188.672.107.04.217.069.329.091.294.129.849.302 1.424.104l-.699-.09c.104-.015.207-.034.308-.062.436-.151.835-.346 1.261-.452.426-.082.875-.089 1.317-.155-.444-.006-.892-.053-1.345.007z"/><path d="m37.773 28.216-1.091-.84c.001 0 .611.739 1.091.84z"/><path d="m35.805 25.988-.63.369c0-.001.439.107.63-.369z"/><path d="m36.034 26.694.315-.015-.057-.231c-.143.001-.258.246-.258.246z"/><path d="m37.425 28.769c.788.476 1.575.323 1.575.323s-.844-.092-1.532-.538c-.687-.446-1.575-1.153-1.575-1.153s.744.892 1.532 1.368z"/><path d="m40.618 36.383c-.655-.84-1.338-1.608-2.027-2.387-.655-.79-.9-1.163-1.602-1.922.568.884.77 1.22 1.386 2.072l1.906 2.509c.259.407.394.909.488 1.431.1.526.145 1.053.166 1.596.034 1.087.012 2.186.017 3.287.165-1.086.268-2.181.3-3.289.025-.555-.018-1.126-.1-1.678-.085-.551-.232-1.127-.534-1.619z"/><path d="m38.087 39.209s.115.348.172.553.134 1.967.095 2.213c-.038.246-.134 2.787-.115 2.91s.306.799.306.799-.115-1.701 0-2.828.115-2.029-.038-2.684-.42-.963-.42-.963z"/><path d="m38.66 38.697s-.006.004-.009.005c-.518-.497-2.305-1.872-3.539-2.54-.015-.023-.069-.049-.141-.076-.227-.117-.433-.207-.601-.256-.127-.136-.295-.508-.473-1.389-.194-.96-.55-1.701-.55-1.701s.119.671.324 1.666.173 1.308.119 1.458-.776.393-1.024.417c-.248.023-.421-.081-.615-.15-.016-.006-.024-.006-.034-.008-.223-.126-.452-.271-.5-.36-.1-.184 0-.476.172-1.644.147-.997.251-1.475.279-1.595.144.059.31.095.451.118.058.009.252.009.309 0 .197-.032.447-.09.613-.2.3-.2.711-.654.964-.745s.743.218.743.218.158-.036.063-.145c0 0-.411-.436-.822-.363s-.751.449-1.232.691c-.235.118-.639.159-.967 0-.484-.235-.822-.618-1.232-.691s-.822.363-.822.363c-.095.109.063.145.063.145s.49-.309.743-.218.664.545.964.745c.046.031.1.057.156.08-.059.134-.298.691-.473 1.413-.201.83-.452 1.595-.505 1.676-.032.049-.42.282-.733.472-.603.325-2.163 1.315-2.394 1.449-.175.101-1.312 1.09-1.398 1.203-.23.183-.898.717-1.118.937-.267.266-.668.738-.554 1.168 0 0 .191-.615.649-.922.324-.217.778-.504 1.079-.698.032-.012.062-.019.101-.045.062-.04 1.93-.937 3.289-1.018s2.383.359 2.739.336 1.521-.405 2.642-.301c1.122.104 1.887.301 2.459.579.248.121.42.207.548.271.006.009.009.019.02.027.172.123.898.574 1.356.881s.649.922.649.922c.115-.43-.286-.902-.554-1.168-.268-.269-1.204-1.007-1.204-1.007zm-4.731-1.074c-.388.035-.852.266-1.251.231s-.852-.197-1.467-.22-2.071.417-2.804.59c-.159.038-.32.068-.476.094-.107-.052-.046-.171.002-.263.054-.104 1.1-.733 1.251-.848.151-.116.647-.403.647-.403s.334-.142.388-.177 1.147-.61 1.292-.532c.003.002.007.003.01.005.101.059.407.25.767.359.058.023.112.043.152.053.088.022.183.025.274.022.045.002.091.005.136.001.572-.046 1.283-.417 1.51-.382.196.03 2.732 1.708 3.417 2.164-.297-.079-.655-.161-1.034-.255-.84-.208-2.426-.474-2.814-.439z"/><path d="m36.597 39.025c.169.016.158.255.176.399.007.166-.003.334-.02.501-.02.333-.082.671-.133 1.009-.102.675-.171 1.352-.258 2.028-.042.693-.164 1.322-.139 2.067.146.687.348 1.332.642 1.947-.149-.661-.282-1.337-.363-1.99.038-.611.154-1.334.225-1.996.056-.678.131-1.355.172-2.034.017-.34.048-.678.032-1.027-.01-.173-.027-.347-.063-.519-.035-.144-.081-.412-.271-.385z"/><path d="m34.936 38.635c.025.323.07.636.104.947.036.311-.058.638-.081.956-.075.64-.124 1.28-.186 1.92-.013.642.033 1.289.066 1.933.043.644.09 1.288.173 1.928.049-.646.063-1.288.072-1.93.019-.642-.031-1.282.009-1.923.037-.642.088-1.284.113-1.926-.007-.321.059-.642-.009-.962-.087-.319-.164-.636-.261-.943z"/><path d="m33.698 29.244c.048.089.081.187.128.283l.244.61c.021-.226.013-.454-.036-.678-.025-.21-.18-.476-.246-.62-.082-.162-.081-.36-.05-.557.013-.103.044-.191.082-.298l.071-.336c-.128.189-.269.333-.364.572-.086.224-.093.493 0 .737.061.129.131.202.171.287z"/><path d="m32.387 42.662c.02 1.178.029 2.356.172 3.535.143-1.178.152-2.356.172-3.535-.02-1.178-.03-2.356-.172-3.535-.143 1.178-.152 2.357-.172 3.535z"/><path d="m35.765 31.4c-.028.392-.242.655-.584.698-.322.031-.71.013-1.061.051.362.07.688.164 1.08.171.192-.002.4-.08.557-.25.159-.174.224-.409.259-.625.072-.15.138-.286.303-.189s.481.483.481.483-.226-.419-.481-.822c-.256-.403-.536-.743-.536-.743-.239-.353-.524-.597-.841-.806.253.283.502.606.676.923.15.334.205.738.147 1.109z"/><path d="m30.403 29.369c-.317.209-.602.453-.841.806 0 0-.431.663-.552.856-.12.193-.165.29-.165.29s.331-.322.421-.29c.026.009.051-.004.075-.024-.01.146-.027.293-.012.438.035.216.1.451.259.625.156.17.365.248.557.25.392-.007.717-.102 1.08-.171-.351-.038-.739-.02-1.061-.051-.342-.043-.556-.306-.584-.698-.058-.371-.003-.775.148-1.109.173-.317.422-.64.675-.922z"/><path d="m11.653 50.296 3.299-1.226c.387 1.351 1.018 3.702 1.211 4.396l-.978.31c.189.155.379.31.573.46l1.254-.339c.301.412 1.31 1.57 3.708 2.69 2.476 1.157 6.459 1.941 7.46 2.133l-.039.918c.123.02.247.039.371.057l-.018-1.341-.24-.043c-.047-.009-4.677-.853-7.413-2.131-1.968-.92-2.981-1.939-3.385-2.422l.452-.125c.523.506 2.166 1.944 4.758 2.784 2.066.669 5.069 1.335 6.218 1.581.028.529.05 1.172.068 1.761.208.027.417.052.627.075-.093-3.127-.174-3.216-.332-3.371-.205-.203-.468-.435-4.469-1.406-2.991-.725-4.904-2.013-5.062-2.402.02-.357.03-5.264.034-7.56.281.562.614 1.101.992 1.584.972 1.24 2.408 2.939 2.856 3.478.218.976.594 2.904 2.029 3.365.373.12.621.282.883.454.421.275.946.618 1.794.618.121 0 .121 0 .264.094.358.235.775.464 1.586.464.159 0 .34-.009.546-.03.154-.016.285-.023.399-.023.28 0 .378.038.513.092.075.029.145.056.215.077.276.085.561.103.752.103.225 0 .559-.025.87-.143.077-.029.144-.061.213-.094.063-.031.091-.045.289-.045.138 0 .31.01.528.033.206.021.387.03.546.03.811 0 1.228-.229 1.586-.464.143-.094.143-.094.264-.094.849 0 1.373-.343 1.794-.618.089-.058.181-.113.272-.167.071-.029.144-.051.215-.085.069-.032.134-.08.202-.118.066-.027.12-.059.195-.084 1.435-.461 1.897-2.7 2.114-3.676.448-.539 2.167-2.465 3.139-3.704.235-.3.43-.594.597-.886.004 2.355.015 7.05.034 7.4-.158.389-2.071 1.677-5.062 2.402-4 .971-4.264 1.203-4.469 1.406-.158.155-.239.244-.332 3.371.21-.023.419-.048.627-.075.018-.589.041-1.232.068-1.761 1.148-.246 4.151-.912 6.218-1.581 2.593-.839 4.236-2.278 4.758-2.784l.452.125c-.404.483-1.416 1.502-3.385 2.422-2.736 1.278-7.367 2.123-7.413 2.131l-.24.043-.018 1.341c.124-.018.247-.037.371-.057l-.039-.918c1.002-.192 4.984-.976 7.46-2.133 2.398-1.12 3.407-2.278 3.708-2.69l1.252.338c.194-.151.384-.305.573-.46l-.977-.309c.193-.694.824-3.046 1.211-4.396l3.299 1.226c.191-.225.377-.453.561-.684l-3.341-1.242-.076-.772c-.447-.155-1.395-.635-1.591-.721-.053-.097-.14-.267-.251-.481-1.198-2.316-1.754-3.078-2.23-3.251-.091-.033-.167-.06-.234-.083.593-1.131 1.192-2.4 1.64-3.651.633-1.768 2.641-7.789 1.916-11.026-.456-2.037-.662-3-.722-3.28.058-.882.435-7.169-.337-9.448-.715-2.112-1.574-3.663-1.765-3.996-.116-.342-.635-1.792-1.401-2.704-.832-.99-3.013-2.447-3.105-2.509l-.031-.02-.033-.017c-.571-.296-1.09-.54-1.459-.708-.318-.145-.672-.15-.997-.034-.015-.004-.023-.006-.023-.006l-.009.017c-.026.01-.054.015-.08.027l-.383.177c-.44-.204-.882-.383-1.195-.504-.279-.108-.585-.116-.871-.027l-.459.143c-.957-.367-1.833-.583-1.881-.595l-.829-.202v.027l-.05-.067h-.314-.75-.586-.083-.586-.75-.314l-.056.067v-.028l-.828.202c-.049.012-.924.227-1.882.595l-.459-.143c-.285-.089-.592-.08-.871.027-.313.121-.754.299-1.194.504l-.383-.177c-.026-.012-.053-.017-.08-.027l-.009-.017s-.008.002-.023.006c-.325-.117-.68-.111-.997.034-.369.168-.888.413-1.459.708l-.033.017-.031.02c-.092.062-2.274 1.519-3.105 2.509-.766.912-1.285 2.362-1.4 2.704-.191.333-1.05 1.884-1.765 3.996-.772 2.279-.395 8.566-.337 9.448-.059.279-.266 1.242-.722 3.28-.725 3.238 1.283 9.258 1.916 11.026.447 1.25 1.055 2.519 1.659 3.649-.068.024-.146.051-.239.085-.476.174-1.032.936-2.23 3.251-.111.214-.198.384-.251.481-.196.086-1.144.566-1.591.721l-.076.772-3.341 1.242c.183.232.37.46.56.684zm37.594-2.548c.158.065.378.149.704.265 0 0-1.182 4.621-1.382 5.341l-.753-.208c.002-.151-.04-.538-.036-.775zm-1.403-2.018c.176.322.367.68.576 1.086.258.498.323.62.388.69l-1.045 3.72c.025-1.738.091-4.411.081-5.496zm-25.932.769h-.317c-.039-.049-.077-.098-.115-.146v-10.525c.14-.156.284-.313.433-.471v11.142zm-3.489-20.52c-.41 2.352 1.223 6.487 3.336 8.86l-.242.263s-3.094-3.787-3.539-7.573 2.067-6.558 2.067-6.558l.541.676c-.597.535-1.809 2.298-2.163 4.332zm2.647-3.726.676.845c-1.501 1.97-2.34 4.184-2.704 5.321-.008-.052-.019-.104-.026-.156-.432-3.375 1.914-5.865 2.054-6.01zm1.06 24.916h.452v-.67-5.409c.204 1.556.439 3.395.66 5.281.125 1.065.255 1.904.39 2.638-.405-.491-.958-1.165-1.502-1.84zm19.579 1.649c.121-.682.237-1.457.35-2.416.166-1.411.339-2.797.501-4.057v4.155.67h.493c-.476.59-.958 1.18-1.344 1.648zm1.954-2.414c-.025.031-.05.063-.075.095h-.358v-11.142c.148.158.292.315.433.471zm3.057-20.425c-.354-2.033-1.567-3.796-2.162-4.332l.541-.676s2.512 2.772 2.067 6.558c-.445 3.787-3.539 7.573-3.539 7.573l-.242-.263c2.112-2.373 3.744-6.508 3.335-8.86zm-.62 2.441c-.363-1.138-1.203-3.352-2.704-5.321l.676-.845c.14.145 2.485 2.635 2.053 6.01-.006.052-.017.103-.025.156zm.51 15.458c.135.156.639.612.666 1.451.041 1.249-.077 7.2-.085 7.677-.379.375-2.237 2.097-4.853 2.943-1.971.639-4.809 1.276-6.035 1.54.014-.19.028-.655.044-.756.396-.185 1.815-.574 4.227-1.16 2.717-.659 5.487-1.927 5.451-2.948-.015-.436-.019-6.926-.021-8.777.008-.028.018-.056.026-.084.118.018.441.065.58.114zm-1.954 1.193c-.208.298-.395.554-.547.756v-9.492c1.543 1.794 2.531 3.359 2.847 3.883-.741 1.846-1.656 3.654-2.3 4.853zm4.588-16.54c.557 2.487-.631 7.128-1.893 10.654-.061.171-.126.343-.192.514-.507-.803-1.644-2.491-3.254-4.281 2.305-2.489 4.289-7.659 3.854-10.378-.445-2.784-2.318-5.172-2.541-4.95-.146.146-1.364 1.7-2.188 2.756l-1.694 2.079h-.334v-.22s.059-.842.148-2.15c.713-.913 2.647-3.473 3.971-6.03.42.493 1.671 2.069 2.155 3.883.413 1.549.875 3.25 1.235 4.569-.007.113-.011.174-.011.174s.187.893.744 3.38zm-1.039-12.659c.568 1.677.466 5.835.369 7.97-.302-1.109-.64-2.36-.951-3.524-.555-2.081-2.032-3.807-2.328-4.138.172-.347.335-.692.476-1.031.515-1.235.808-2.101.964-2.712.342.653.947 1.892 1.47 3.435zm-6.008-8.866s2.184 1.454 2.964 2.382 1.299 2.549 1.299 2.549.006.01.015.026c-.1.526-.368 1.449-1.034 3.049-1.081 2.595-3.206 5.538-4.246 6.904.047-.68.099-1.449.155-2.274.001-.004.002-.008.003-.011-.001.002-.002.004-.002.007.331-4.897.777-11.673.754-12.377-.004-.122-.036-.236-.083-.343.058.029.115.057.175.088zm-1.974-.006v-.019l1.2.774-.829 14.131c-.047.163-.1.322-.166.476l-.911 1.047h-.408s.005-.281.013-.764v-.007c.045-2.635.182-11.247.098-13.398-.065-1.663-.592-2.659-1.02-3.201.563.219 1.466.597 2.023.961zm-5.234-1.448s1.522.371 2.71.965c0 0 1.126.767 1.126 3.391v9.893l-.326.142c-.034.015-.408.179-.911.437.08-1.137.497-7.751-.384-10.224-.965-2.71-2.215-3.452-2.215-3.452zm2.693 16.489c-1.441.709-2.702 1.359-3.484 2.041.444-.72 1.053-1.614 1.582-2.048 1.1-.902 2.896-1.683 2.896-1.683l-.059 1.06c-.155.163-.433.383-.935.63zm.915-.256-.075 1.353c-.81.347-2.261.982-3.087 1.421-.855.454-1.78 1.682-2.235 2.192h-.001c.146-.574.51-1.828 1.015-2.347.706-.725 2.06-1.422 3.626-2.192.342-.167.58-.307.757-.427zm-4.215-15.133c.004.019.008.032.012.051 0 0 2.252 1.93 2.735 5.271.018.127.035.258.051.39-.374.204-1.843 1.095-2.798 2.874zm0 9.312c.797-1.907 2.305-2.942 2.835-3.258.075.739.116 1.545.135 2.355-.299.149-1.934 1.035-2.97 2.883zm0 2.676c.843-1.913 2.455-2.937 2.977-3.229.035 2.256-.093 4.453-.139 5.162-.508.276-1.086.621-1.572.997.054-.194.068-.385.022-.579-.08-.339-.33-.619-.763-.857-.114-.063-.239-.095-.37-.095-.051 0-.103.006-.154.017v-1.416zm-1.662-13.311h.48.75s.01.013.025.039v14.871c-.449.302-.886.907-1.254 1.534v-16.444zm0 20.283c.179-.608.46-1.486.753-2.092.575-1.188 1.318-2.524 1.318-2.524s-.891.91-1.485 2.172c-.277.588-.464 1.308-.586 1.911v-2.366c.398-.766 1.233-2.227 1.817-2.227.054 0 .106.013.155.04.844.463.633.95.025 1.831-.63.914-.919 1.797-1.046 2.318-.433.669-.723 1.645-.837 2.077h-.114zm.708 1.636c.348-.425 1.443-1.631 2.32-2.097.695-.369 1.869-.892 2.691-1.248l.283.175h.387.408.305l.2-.23.31-.356v1.216.67h.67.334.297l.199-.22 1.243-1.372c.395.548.738 1.112 1.035 1.662.128.851.162 2.033.162 2.033s.848 1.499.792 2.743c-.01.224-.029.426-.051.618-.981 2.217-2.266 3.674-2.282 3.692l-.17.191v.255 5.175c-.263 1.573-.715 4.671-.935 6.125-.043-.451-.157-.957-.396-1.496l.141 3.092c-.087.524-.191 1.129-.3 1.713-.01.012-.025.03-.034.041-.006-.038-.006-.078-.013-.116l-.536-2.467c-.17-.842-.393-1.581-.504-2.41-.128-.831-.149-1.606-.031-2.47-.048-.879-.381-1.665-.778-2.382.307.76.586 1.574.555 2.377-.16.78-.186 1.697-.094 2.523.052.84.318 1.699.454 2.496l.484 2.429c.077.406.097.823.065 1.237-.24.724-.63 1.599-1.182 1.928.186-.466.358-1.075.405-1.802.095-1.455-.306-2.725-.458-3.074-.153-.348-.783-1.701-.783-1.701s.057.328.21.861.63 1.393.668 3.176c.025 1.151-.402 2.209-.709 2.819-.598.285-.924.625-1.424.767.015-.036.038-.066.052-.103.286-.779.401-1.619.401-3.156s-.783-3.217-.783-3.217-.038.471.057.738c.095.266.286 1.127.286 2.192 0 1.066-.096 2.274-.477 3.197-.074.178-.143.316-.21.435-.663.074-.654.526-1.626.54-.024-.387-.056-1.123-.017-2 .057-1.291.115-1.906.076-3.156-.034-1.108-.172-1.988-.172-1.988s-.21 3.32-.306 4.324c-.084.879-.226 2.292-.427 2.768-.1-.006-.19-.009-.27-.009-.55 0-.644.124-.85.203-.016.006-.038.008-.056.014.012-.154 0-.321-.028-.476-.061-.338-.123-.799-.123-1.076s.061-1.752.092-2.059-.43-3.719-.43-3.719-.184 2.613-.184 3.35c0 .738.092 2.059.154 2.49.061.43-.031 1.352-.123 1.537-.002.003-.002.004-.003.007-.104-.009-.203-.024-.283-.048-.215-.066-.42-.212-1.017-.212-.001 0-.002 0-.003 0-.211-.427-.36-1.892-.447-2.8-.096-1.004-.306-4.324-.306-4.324s-.138.88-.172 1.988c-.038 1.25.019 1.865.076 3.156.04.899.006 1.65-.019 2.029-.023 0-.054.004-.076.004-.94 0-.987-.4-1.519-.521-.074-.128-.154-.284-.238-.487-.382-.922-.477-2.131-.477-3.197s.191-1.926.286-2.193c.095-.266.057-.738.057-.738s-.783 1.68-.783 3.217.115 2.377.401 3.156c.024.064.061.116.088.176-.539-.097-.855-.423-1.396-.717-.307-.581-.8-1.706-.774-2.943.038-1.783.516-2.643.668-3.176.153-.533.21-.861.21-.861s-.63 1.352-.783 1.701c-.153.348-.554 1.619-.458 3.074.052.786.248 1.429.451 1.908-.503-.189-.885-.831-1.154-1.485-.118-.586-.121-1.199-.009-1.786l.484-2.429c.137-.797.402-1.656.454-2.496.092-.825.066-1.742-.094-2.523-.031-.803.248-1.618.555-2.377-.398.717-.73 1.503-.778 2.382.118.865.098 1.639-.031 2.47-.111.829-.333 1.568-.504 2.41l-.536 2.467c-.012.068-.013.137-.022.205-.112-.589-.219-1.21-.31-1.752l.15-3.214c-.255.563-.372 1.09-.415 1.558-.233-1.539-.739-5.017-.992-6.465-.035-.201-.071-.395-.107-.58v-4.255-.255l-.17-.191c-.015-.017-1.149-1.306-2.1-3.3-.046-.286-.087-.621-.104-1.01-.057-1.244.792-2.743.792-2.743s.043-1.545.222-2.373c.251-.441.532-.886.845-1.322l1.243 1.372.199.22h.297.334.67v-.67-1.216l.31.356.2.23h.305.408.384l.286-.175c.822.356 1.996.878 2.691 1.248.877.466 1.972 1.672 2.32 2.097h1.72zm-2.668-8.608v1.416c-.051-.011-.103-.017-.154-.017-.131 0-.256.032-.37.095-.433.238-.683.518-.763.857-.046.194-.033.386.022.579-.486-.375-1.063-.721-1.572-.997-.046-.708-.174-2.906-.139-5.162.521.292 2.133 1.317 2.976 3.229zm-2.97-3.58c.019-.809.06-1.615.135-2.355.53.316 2.038 1.351 2.835 3.258v1.98c-1.036-1.848-2.671-2.734-2.97-2.883zm1.572 6.975c.529.434 1.138 1.328 1.582 2.048-.781-.682-2.043-1.332-3.484-2.041-.52-.256-.802-.484-.954-.647l-.041-1.042c.001-.001 1.797.779 2.897 1.682zm1.632 2.454c.501.514.826 1.706.956 2.263h-.007c-.455-.51-1.38-1.738-2.235-2.192-.843-.448-2.335-1.099-3.134-1.441l-.052-1.337c.194.153.459.326.846.516 1.566.769 2.92 1.466 3.626 2.191zm.174-19.121c.015-.026.025-.039.025-.039h.75.48v16.444c-.368-.627-.806-1.232-1.254-1.534v-14.871zm1.255 17.344v2.366c-.122-.603-.309-1.323-.586-1.911-.594-1.262-1.485-2.172-1.485-2.172s.742 1.336 1.318 2.524c.293.606.574 1.484.753 2.092v1.14h-.114c-.114-.432-.404-1.408-.837-2.077-.127-.522-.415-1.404-1.046-2.318-.608-.881-.819-1.368.025-1.831.049-.027.101-.04.155-.04.583 0 1.418 1.461 1.817 2.227zm-1.675-16.009c.004-.019.008-.033.012-.051v8.587c-.955-1.778-2.424-2.669-2.798-2.874.016-.133.032-.263.051-.39.483-3.342 2.735-5.272 2.735-5.272zm-3.304-.186c1.188-.594 2.71-.965 2.71-.965v1.151s-1.25.742-2.215 3.452c-.881 2.473-.463 9.087-.384 10.224-.503-.258-.877-.422-.911-.437l-.326-.142c0-3.474 0-8.282 0-9.893 0-2.622 1.126-3.39 1.126-3.39zm-2.525.464v.019c.557-.364 1.461-.742 2.022-.961-.428.542-.955 1.538-1.02 3.201-.084 2.151.053 10.763.098 13.398v.007c.008.483.013.764.013.764v.247h-.408l-1.055-1.388-.85-14.513zm-6.236 4.956s.52-1.621 1.299-2.549c.78-.928 2.964-2.382 2.964-2.382.06-.031.117-.059.176-.089-.047.107-.079.221-.083.343-.027.823.586 9.941.909 14.656-1.04-1.365-3.164-4.308-4.246-6.904-.666-1.599-.933-2.522-1.034-3.048.009-.016.015-.027.015-.027zm-1.745 3.935c.523-1.543 1.127-2.783 1.47-3.434.156.61.449 1.477.963 2.711.141.339.304.685.476 1.031-.296.331-1.772 2.056-2.327 4.138-.311 1.164-.649 2.415-.951 3.524-.097-2.134-.199-6.292.369-7.97zm.854 23.314c-1.262-3.527-2.45-8.167-1.893-10.654s.742-3.378.742-3.378-.004-.061-.011-.174c.36-1.318.822-3.02 1.236-4.569.484-1.812 1.735-3.389 2.155-3.882 1.325 2.558 3.258 5.117 3.971 6.03.09 1.308.148 2.15.148 2.15v.199h-.334l-.873-1.061.044.021s-2.896-3.49-3.118-3.712c-.223-.223-2.029 2.104-2.475 4.888-.435 2.718 1.549 7.888 3.854 10.378-1.611 1.789-2.747 3.478-3.254 4.281-.066-.175-.131-.346-.192-.517zm.394 1.032c.316-.524 1.304-2.089 2.847-3.883v9.426c-.185-.251-.424-.58-.679-.938-.633-1.193-1.476-2.88-2.168-4.605zm-.305 5.112c.027-.839.531-1.295.666-1.451.147-.052.509-.103.607-.118-.002 1.727-.006 8.422-.021 8.865-.036 1.021 2.733 2.289 5.451 2.948 2.411.586 3.83.975 4.227 1.16.016.102.03.566.044.756-1.225-.264-4.064-.901-6.035-1.54-2.616-.846-4.474-2.568-4.853-2.943-.009-.477-.127-6.428-.086-7.677zm-1.145 1.486c.21-.405.4-.763.576-1.086-.009 1.085.057 3.758.081 5.495l-1.045-3.72c.064-.069.13-.191.388-.689zm-.826.932 1.466 4.622c.004.238-.038.625-.036.775l-.753.208c-.2-.72-1.382-5.341-1.382-5.341.326-.116.547-.2.705-.264z"/></g></svg>